M48
; DRILL file {KiCad 9.0.7} date 2026-03-16T17:06:06-0500
; FORMAT={-:-/ absolute / metric / decimal}
; #@! TF.CreationDate,2026-03-16T17:06:06-05:00
; #@! TF.GenerationSoftware,Kicad,Pcbnew,9.0.7
; #@! TF.FileFunction,NonPlated,1,2,NPTH
FMAT,2
METRIC
; #@! TA.AperFunction,NonPlated,NPTH,ComponentDrill
T1C1.700
; #@! TA.AperFunction,NonPlated,NPTH,ComponentDrill
T2C4.000
%
G90
G05
T1
X91.32Y-97.45
X91.32Y-116.5
X91.32Y-135.55
X101.48Y-97.45
X101.48Y-116.5
X101.48Y-135.55
X110.37Y-97.45
X110.37Y-116.5
X110.37Y-135.55
X120.53Y-97.45
X120.53Y-116.5
X120.53Y-135.55
X129.42Y-97.45
X129.42Y-116.5
X129.42Y-135.55
X139.58Y-97.45
X139.58Y-116.5
X139.58Y-135.55
T2
X96.4Y-97.45
X96.4Y-116.5
X96.4Y-135.55
X115.45Y-97.45
X115.45Y-116.5
X115.45Y-135.55
X134.5Y-97.45
X134.5Y-116.5
X134.5Y-135.55
M30
