M48
; DRILL file {KiCad 9.0.7} date 2026-03-16T17:06:06-0500
; FORMAT={-:-/ absolute / metric / decimal}
; #@! TF.CreationDate,2026-03-16T17:06:06-05:00
; #@! TF.GenerationSoftware,Kicad,Pcbnew,9.0.7
; #@! TF.FileFunction,Plated,1,2,PTH
FMAT,2
METRIC
; #@! TA.AperFunction,Plated,PTH,ComponentDrill
T1C0.800
; #@! TA.AperFunction,Plated,PTH,ComponentDrill
T2C0.889
; #@! TA.AperFunction,Plated,PTH,ComponentDrill
T3C1.000
; #@! TA.AperFunction,Plated,PTH,ComponentDrill
T4C1.500
; #@! TA.AperFunction,Plated,PTH,ComponentDrill
T5C2.600
%
G90
G05
T1
X86.794Y-112.578
X86.794Y-120.197
X86.894Y-93.877
X86.894Y-101.498
X86.894Y-131.778
X86.894Y-139.397
X105.794Y-112.777
X105.794Y-120.397
X105.894Y-94.477
X105.894Y-102.097
X105.894Y-130.377
X105.894Y-137.998
X124.994Y-94.677
X124.994Y-102.297
X125.094Y-113.078
X125.094Y-120.697
X125.094Y-130.577
X125.094Y-138.197
T2
X90.074Y-68.567
X90.074Y-71.108
X90.074Y-73.647
X90.074Y-76.188
X90.074Y-78.727
X90.074Y-81.267
X90.074Y-83.807
X105.314Y-68.567
X105.314Y-71.108
X105.314Y-73.647
X105.314Y-76.188
X105.314Y-78.727
X105.314Y-81.267
X105.314Y-83.807
T3
X122.75Y-73.0
X122.75Y-75.5
X122.75Y-78.0
X137.25Y-73.0
X137.25Y-78.0
T4
X92.59Y-94.91
X92.59Y-113.96
X92.59Y-133.01
X98.94Y-92.37
X98.94Y-111.42
X98.94Y-130.47
X111.64Y-94.91
X111.64Y-113.96
X111.64Y-133.01
X117.99Y-92.37
X117.99Y-111.42
X117.99Y-130.47
X130.69Y-94.91
X130.69Y-113.96
X130.69Y-133.01
X137.04Y-92.37
X137.04Y-111.42
X137.04Y-130.47
T5
X130.25Y-69.9
X130.25Y-81.1
M30
