%TF.GenerationSoftware,KiCad,Pcbnew,9.0.7*%
%TF.CreationDate,2026-03-16T17:05:51-05:00*%
%TF.ProjectId,pcb,7063622e-6b69-4636-9164-5f7063625858,rev?*%
%TF.SameCoordinates,Original*%
%TF.FileFunction,Soldermask,Top*%
%TF.FilePolarity,Negative*%
%FSLAX46Y46*%
G04 Gerber Fmt 4.6, Leading zero omitted, Abs format (unit mm)*
G04 Created by KiCad (PCBNEW 9.0.7) date 2026-03-16 17:05:51*
%MOMM*%
%LPD*%
G01*
G04 APERTURE LIST*
G04 Aperture macros list*
%AMRoundRect*
0 Rectangle with rounded corners*
0 $1 Rounding radius*
0 $2 $3 $4 $5 $6 $7 $8 $9 X,Y pos of 4 corners*
0 Add a 4 corners polygon primitive as box body*
4,1,4,$2,$3,$4,$5,$6,$7,$8,$9,$2,$3,0*
0 Add four circle primitives for the rounded corners*
1,1,$1+$1,$2,$3*
1,1,$1+$1,$4,$5*
1,1,$1+$1,$6,$7*
1,1,$1+$1,$8,$9*
0 Add four rect primitives between the rounded corners*
20,1,$1+$1,$2,$3,$4,$5,0*
20,1,$1+$1,$4,$5,$6,$7,0*
20,1,$1+$1,$6,$7,$8,$9,0*
20,1,$1+$1,$8,$9,$2,$3,0*%
G04 Aperture macros list end*
%ADD10RoundRect,0.152400X1.063600X0.609600X-1.063600X0.609600X-1.063600X-0.609600X1.063600X-0.609600X0*%
%ADD11C,1.524000*%
%ADD12RoundRect,0.152400X-1.063600X-0.609600X1.063600X-0.609600X1.063600X0.609600X-1.063600X0.609600X0*%
%ADD13C,1.700000*%
%ADD14C,4.000000*%
%ADD15C,2.200000*%
%ADD16RoundRect,0.250000X-0.550000X0.550000X-0.550000X-0.550000X0.550000X-0.550000X0.550000X0.550000X0*%
%ADD17C,1.600000*%
%ADD18RoundRect,0.250000X0.550000X-0.550000X0.550000X0.550000X-0.550000X0.550000X-0.550000X-0.550000X0*%
%ADD19R,2.000000X2.000000*%
%ADD20C,2.000000*%
%ADD21C,3.200000*%
G04 APERTURE END LIST*
D10*
%TO.C,U1*%
X89238750Y-68567500D03*
D11*
X90073750Y-68567500D03*
D10*
X89238750Y-71107500D03*
D11*
X90073750Y-71107500D03*
D10*
X89238750Y-73647500D03*
D11*
X90073750Y-73647500D03*
D10*
X89238750Y-76187500D03*
D11*
X90073750Y-76187500D03*
D10*
X89238750Y-78727500D03*
D11*
X90073750Y-78727500D03*
D10*
X89238750Y-81267500D03*
D11*
X90073750Y-81267500D03*
D10*
X89238750Y-83807500D03*
D11*
X90073750Y-83807500D03*
X105313750Y-83807500D03*
D12*
X106148750Y-83807500D03*
D11*
X105313750Y-81267500D03*
D12*
X106148750Y-81267500D03*
D11*
X105313750Y-78727500D03*
D12*
X106148750Y-78727500D03*
D11*
X105313750Y-76187500D03*
D12*
X106148750Y-76187500D03*
D11*
X105313750Y-73647500D03*
D12*
X106148750Y-73647500D03*
D11*
X105313750Y-71107500D03*
D12*
X106148750Y-71107500D03*
D11*
X105313750Y-68567500D03*
D12*
X106148750Y-68567500D03*
%TD*%
D13*
%TO.C,SW3*%
X91320000Y-135550000D03*
D14*
X96400000Y-135550000D03*
D13*
X101480000Y-135550000D03*
D15*
X98940000Y-130470000D03*
X92590000Y-133010000D03*
%TD*%
D16*
%TO.C,D5*%
X86893750Y-131777500D03*
D17*
X86893750Y-139397500D03*
%TD*%
D16*
%TO.C,D6*%
X105793750Y-112777500D03*
D17*
X105793750Y-120397500D03*
%TD*%
D16*
%TO.C,D9*%
X125093750Y-130577500D03*
D17*
X125093750Y-138197500D03*
%TD*%
D13*
%TO.C,SW9*%
X129420000Y-135550000D03*
D14*
X134500000Y-135550000D03*
D13*
X139580000Y-135550000D03*
D15*
X137040000Y-130470000D03*
X130690000Y-133010000D03*
%TD*%
D13*
%TO.C,SW6*%
X110370000Y-135550000D03*
D14*
X115450000Y-135550000D03*
D13*
X120530000Y-135550000D03*
D15*
X117990000Y-130470000D03*
X111640000Y-133010000D03*
%TD*%
D13*
%TO.C,SW7*%
X129420000Y-97450000D03*
D14*
X134500000Y-97450000D03*
D13*
X139580000Y-97450000D03*
D15*
X137040000Y-92370000D03*
X130690000Y-94910000D03*
%TD*%
D18*
%TO.C,D2*%
X105893750Y-102097500D03*
D17*
X105893750Y-94477500D03*
%TD*%
D13*
%TO.C,SW2*%
X91320000Y-116500000D03*
D14*
X96400000Y-116500000D03*
D13*
X101480000Y-116500000D03*
D15*
X98940000Y-111420000D03*
X92590000Y-113960000D03*
%TD*%
D18*
%TO.C,D8*%
X125093750Y-120697500D03*
D17*
X125093750Y-113077500D03*
%TD*%
D16*
%TO.C,D7*%
X105893750Y-130377500D03*
D17*
X105893750Y-137997500D03*
%TD*%
D18*
%TO.C,D1*%
X86893750Y-101497500D03*
D17*
X86893750Y-93877500D03*
%TD*%
D18*
%TO.C,D3*%
X124993750Y-102297500D03*
D17*
X124993750Y-94677500D03*
%TD*%
D19*
%TO.C,SW10*%
X122750000Y-73000000D03*
D20*
X122750000Y-78000000D03*
X122750000Y-75500000D03*
D21*
X130250000Y-69900000D03*
X130250000Y-81100000D03*
D20*
X137250000Y-78000000D03*
X137250000Y-73000000D03*
%TD*%
D13*
%TO.C,SW5*%
X110370000Y-116500000D03*
D14*
X115450000Y-116500000D03*
D13*
X120530000Y-116500000D03*
D15*
X117990000Y-111420000D03*
X111640000Y-113960000D03*
%TD*%
D13*
%TO.C,SW8*%
X129420000Y-116500000D03*
D14*
X134500000Y-116500000D03*
D13*
X139580000Y-116500000D03*
D15*
X137040000Y-111420000D03*
X130690000Y-113960000D03*
%TD*%
D13*
%TO.C,SW1*%
X91320000Y-97450000D03*
D14*
X96400000Y-97450000D03*
D13*
X101480000Y-97450000D03*
D15*
X98940000Y-92370000D03*
X92590000Y-94910000D03*
%TD*%
D16*
%TO.C,D4*%
X86793750Y-112577500D03*
D17*
X86793750Y-120197500D03*
%TD*%
D13*
%TO.C,SW4*%
X110370000Y-97450000D03*
D14*
X115450000Y-97450000D03*
D13*
X120530000Y-97450000D03*
D15*
X117990000Y-92370000D03*
X111640000Y-94910000D03*
%TD*%
M02*
