%TF.GenerationSoftware,KiCad,Pcbnew,9.0.7*%
%TF.CreationDate,2026-03-16T17:05:51-05:00*%
%TF.ProjectId,pcb,7063622e-6b69-4636-9164-5f7063625858,rev?*%
%TF.SameCoordinates,Original*%
%TF.FileFunction,OtherDrawing,Comment*%
%FSLAX46Y46*%
G04 Gerber Fmt 4.6, Leading zero omitted, Abs format (unit mm)*
G04 Created by KiCad (PCBNEW 9.0.7) date 2026-03-16 17:05:51*
%MOMM*%
%LPD*%
G01*
G04 APERTURE LIST*
%ADD10C,0.150000*%
G04 APERTURE END LIST*
D10*
%TO.C,SW3*%
X86875000Y-126025000D02*
X105925000Y-126025000D01*
X86875000Y-145075000D02*
X86875000Y-126025000D01*
X105925000Y-126025000D02*
X105925000Y-145075000D01*
X105925000Y-145075000D02*
X86875000Y-145075000D01*
%TO.C,SW9*%
X124975000Y-126025000D02*
X144025000Y-126025000D01*
X124975000Y-145075000D02*
X124975000Y-126025000D01*
X144025000Y-126025000D02*
X144025000Y-145075000D01*
X144025000Y-145075000D02*
X124975000Y-145075000D01*
%TO.C,SW6*%
X105925000Y-126025000D02*
X124975000Y-126025000D01*
X105925000Y-145075000D02*
X105925000Y-126025000D01*
X124975000Y-126025000D02*
X124975000Y-145075000D01*
X124975000Y-145075000D02*
X105925000Y-145075000D01*
%TO.C,SW7*%
X124975000Y-87925000D02*
X144025000Y-87925000D01*
X124975000Y-106975000D02*
X124975000Y-87925000D01*
X144025000Y-87925000D02*
X144025000Y-106975000D01*
X144025000Y-106975000D02*
X124975000Y-106975000D01*
%TO.C,SW2*%
X86875000Y-106975000D02*
X105925000Y-106975000D01*
X86875000Y-126025000D02*
X86875000Y-106975000D01*
X105925000Y-106975000D02*
X105925000Y-126025000D01*
X105925000Y-126025000D02*
X86875000Y-126025000D01*
%TO.C,SW5*%
X105925000Y-106975000D02*
X124975000Y-106975000D01*
X105925000Y-126025000D02*
X105925000Y-106975000D01*
X124975000Y-106975000D02*
X124975000Y-126025000D01*
X124975000Y-126025000D02*
X105925000Y-126025000D01*
%TO.C,SW8*%
X124975000Y-106975000D02*
X144025000Y-106975000D01*
X124975000Y-126025000D02*
X124975000Y-106975000D01*
X144025000Y-106975000D02*
X144025000Y-126025000D01*
X144025000Y-126025000D02*
X124975000Y-126025000D01*
%TO.C,SW1*%
X86875000Y-87925000D02*
X105925000Y-87925000D01*
X86875000Y-106975000D02*
X86875000Y-87925000D01*
X105925000Y-87925000D02*
X105925000Y-106975000D01*
X105925000Y-106975000D02*
X86875000Y-106975000D01*
%TO.C,SW4*%
X105925000Y-87925000D02*
X124975000Y-87925000D01*
X105925000Y-106975000D02*
X105925000Y-87925000D01*
X124975000Y-87925000D02*
X124975000Y-106975000D01*
X124975000Y-106975000D02*
X105925000Y-106975000D01*
%TD*%
M02*
